<svg width="326" height="58" viewBox="0 0 326 58" fill="none" xmlns="http://www.w3.org/2000/svg">
<path fill-rule="evenodd" clip-rule="evenodd" d="M51.9988 27.8215V27.242L47.0862 23.0432H46.5067C45.7802 23.8571 44.8919 24.5106 43.8985 24.9617C42.9051 25.4129 41.8285 25.6518 40.7375 25.6633C39.0388 25.6857 37.4005 25.0335 36.182 23.8496C34.9635 22.6657 34.2642 21.0469 34.2377 19.3482V19.0711C34.1948 17.3714 34.8274 15.724 35.997 14.4899C37.1665 13.2558 38.7776 12.5357 40.4772 12.4873H40.7375C41.8285 12.4988 42.9051 12.7377 43.8985 13.1888C44.8919 13.64 45.7802 14.2934 46.5067 15.1074H47.0862L51.9988 10.9086V10.3291C50.6305 8.6864 48.9139 7.36854 46.9735 6.47095C45.0331 5.57336 42.9174 5.11852 40.7795 5.13936C32.3818 5.13936 25.9492 11.1185 25.9492 19.1047C25.9492 19.4238 26.0248 19.7093 26.05 20.0116C29.493 22.3546 32.5414 24.2105 35.1615 25.9572C38.4073 27.9485 41.5286 30.1359 44.5081 32.5074C47.4417 31.7821 50.0647 30.1335 51.9904 27.8047M29.0396 27.6535C31.0916 30.1444 33.9225 31.8719 37.0761 32.5577C34.8591 31.2981 32.7177 30.0384 30.7779 28.7788C30.1816 28.4261 29.6694 28.0734 29.0983 27.7039" fill="#FC0000"/>
<path fill-rule="evenodd" clip-rule="evenodd" d="M80.4327 31.1974L79.1731 25.8984L78.7196 25.6045C78.4076 25.8137 78.0366 25.9168 77.6615 25.8984C76.7209 25.8984 76.1415 24.8991 75.646 24.1097C75.1541 23.2241 74.4537 22.4718 73.6054 21.9179C75.1003 21.3519 76.3853 20.3404 77.2865 19.0202C78.1876 17.7 78.6615 16.1348 78.644 14.5364C78.644 9.02752 74.865 5.54248 67.8866 5.54248H55.668V32.457H63.7381V23.0096H64.4687C66.2742 23.0096 68.5668 26.9061 69.6333 28.6445C71.8419 32.1715 73.6054 32.9609 76.7545 32.9609C78.0172 32.9738 79.2414 32.526 80.1976 31.7012L80.4327 31.1974ZM70.3555 14.9899C70.4041 15.6557 70.1864 16.3136 69.7502 16.819C69.314 17.3244 68.6951 17.6361 68.0293 17.6855C67.859 17.7023 67.6874 17.7023 67.5171 17.6855H63.7381V12.2186H67.5171C67.8697 12.1959 68.2233 12.2431 68.5576 12.3576C68.8919 12.4721 69.2002 12.6516 69.4648 12.8858C69.7294 13.12 69.9451 13.4042 70.0994 13.722C70.2537 14.0399 70.3436 14.3852 70.3639 14.7379C70.3639 14.8387 70.3639 14.9395 70.3639 15.0402L70.3555 14.9899Z" fill="#FC0000"/>
<path fill-rule="evenodd" clip-rule="evenodd" d="M111.748 19.0711C111.748 11.0682 105.357 5.09741 96.8838 5.09741C88.4106 5.09741 82.0283 11.043 82.0283 19.0711C82.0283 27.0993 88.4189 33.0365 96.8838 33.0365C105.349 33.0365 111.748 27.0321 111.748 19.0711ZM103.442 19.0711C103.444 20.3757 103.059 21.6513 102.335 22.7367C101.611 23.8221 100.582 24.6683 99.3768 25.1683C98.1719 25.6683 96.8457 25.7995 95.5662 25.5454C94.2867 25.2913 93.1113 24.6633 92.1888 23.7409C91.2664 22.8185 90.6384 21.6431 90.3843 20.3635C90.1302 19.084 90.2615 17.7578 90.7614 16.5529C91.2614 15.348 92.1077 14.3186 93.193 13.5948C94.2784 12.8711 95.5541 12.4857 96.8586 12.4874C98.6047 12.4874 100.279 13.181 101.514 14.4157C102.749 15.6504 103.442 17.325 103.442 19.0711Z" fill="#FC0000"/>
<path fill-rule="evenodd" clip-rule="evenodd" d="M129.811 5.57605L124.756 20.4063L119.986 5.57605H112.235L111.874 6.19748L121.775 32.5242H126.688L132.264 17.8366L137.865 32.5242H142.777L152.687 6.19748L152.309 5.57605H144.591L139.788 20.4903L134.724 5.57605H129.811Z" fill="#FC0000"/>
<path fill-rule="evenodd" clip-rule="evenodd" d="M182.381 19.0039C182.381 10.9673 177.023 5.56763 168.306 5.56763H155.869V32.5074H168.289C177.006 32.5074 182.364 27.116 182.364 18.9871M174.1 18.9871C174.1 23.3875 171.581 25.8312 167.97 25.8312H163.981V12.2018H167.97C171.522 12.2018 174.1 14.6623 174.1 19.0459" fill="#FC0000"/>
<path fill-rule="evenodd" clip-rule="evenodd" d="M209.169 12.2018H217.105V32.5242H225.225V12.2018H233.354V5.57605H209.169V12.2018Z" fill="#FC0000"/>
<path fill-rule="evenodd" clip-rule="evenodd" d="M259.236 14.57C259.236 9.05268 255.457 5.57605 248.47 5.57605H236.311V32.5074H244.414V23.06H246.337L251.376 32.5242H259.438L259.807 31.8943L254.399 21.9011C255.855 21.3107 257.099 20.2955 257.969 18.9878C258.839 17.6801 259.296 16.1407 259.278 14.57M250.998 15.0234C251.017 15.3537 250.971 15.6846 250.863 15.9971C250.754 16.3097 250.585 16.5977 250.365 16.8449C250.145 17.0921 249.879 17.2936 249.581 17.4378C249.283 17.582 248.96 17.6662 248.63 17.6855C248.479 17.6981 248.327 17.6981 248.176 17.6855H244.398V12.2186H248.176C248.884 12.1796 249.579 12.4229 250.108 12.8951C250.637 13.3674 250.957 14.03 250.998 14.7379C251.006 14.8329 251.006 14.9284 250.998 15.0234Z" fill="#FC0000"/>
<path fill-rule="evenodd" clip-rule="evenodd" d="M264.157 32.5242H272.278V5.57605H264.157V32.5242Z" fill="#FC0000"/>
<path fill-rule="evenodd" clip-rule="evenodd" d="M285.504 15.1494V5.57605H277.384V32.5242H285.504V24.2189L287.016 22.4806L293.818 32.5242H302.316L302.694 31.8943L292.869 17.6351L301.947 6.19748L301.754 5.57605H293.062L285.504 15.1494Z" fill="#FC0000"/>
<path fill-rule="evenodd" clip-rule="evenodd" d="M313.09 25.8816V22.153H322.353V15.9304H313.09V12.2018H325.183V5.57605H304.97V32.5242H325.368V25.8816H313.09Z" fill="#FC0000"/>
<path fill-rule="evenodd" clip-rule="evenodd" d="M196.136 32.8348C202.065 32.8348 207.221 29.9293 207.221 24.3364C207.221 18.2397 202.031 16.6609 197.446 15.3425C195.641 14.7967 193.793 14.1836 193.793 12.8232C193.793 11.8743 194.826 11.2948 196.313 11.2948C198.598 11.4334 200.753 12.4078 202.367 14.0325H202.947L206.726 9.47254V8.8931C204.727 6.60893 200.629 4.87061 196.119 4.87061C189.821 4.87061 185.454 8.22967 185.454 13.2011C185.454 18.5168 190.275 20.8346 194.373 22.0186C197.026 22.7576 198.832 22.8584 198.832 24.3364C198.832 25.3777 197.572 26.0159 195.59 26.0159C192.978 25.8237 190.511 24.7385 188.604 22.9424H188.024L184.245 27.6787V28.2581C185.791 29.7807 187.63 30.9731 189.652 31.7627C191.673 32.5524 193.833 32.9229 196.002 32.8516" fill="#FC0000"/>
<path fill-rule="evenodd" clip-rule="evenodd" d="M56.3486 57.6499C54.3835 53.1572 50.4702 47.3964 34.9933 39.1751C27.8637 35.2198 15.6787 29.0979 4.76172 17.5259C5.79463 21.6575 10.8332 30.853 32.6924 42.3242C38.7387 45.6833 48.9754 48.74 56.3486 57.608" fill="#FC0000"/>
<path fill-rule="evenodd" clip-rule="evenodd" d="M55.3658 49.9157C53.5016 44.6 50.1341 37.7979 34.1785 27.7123C26.4191 22.6737 15.0066 16.2327 0 0C1.0749 4.3332 5.79439 15.754 29.7278 30.5843C37.588 35.9 47.7156 39.1835 55.3742 49.899" fill="#FC0000"/>
</svg>
