<svg width="299" height="40" viewBox="0 0 299 40" fill="none" xmlns="http://www.w3.org/2000/svg">
<g clip-path="url(#clip0_17026_206429)">
<path d="M21.3245 0V9.57957L31.7224 20L21.3245 30.4247V40C31.7565 39.3213 40.0063 30.6239 40.0063 20C40.0063 9.37611 31.7565 0.678665 21.3245 0ZM0.00634766 20C0.00634766 30.6239 8.25621 39.3213 18.691 40V30.4247L8.29029 20L18.6924 9.57957V0C8.25621 0.678665 0.00634766 9.37611 0.00634766 20Z" fill="url(#paint0_radial_17026_206429)"/>
</g>
<path d="M62.0063 19.9957C62.0063 13.1692 67.077 8 74.0021 8C79.5352 8 83.8436 11.4133 85.2012 16.3512H80.1305C79.0385 13.9657 76.8158 12.5096 73.9678 12.5096C69.6937 12.5096 66.7772 15.6574 66.7772 20C66.7772 24.3426 69.6937 27.4904 73.9678 27.4904C76.8158 27.4904 79.0385 26.0343 80.1305 23.6488H85.2012C83.8436 28.5867 79.5352 32 74.0021 32C67.077 32 62.0063 26.8308 62.0063 20.0043V19.9957Z" fill="#09090B"/>
<path d="M112.371 23.9357V31.5888H107.6L107.634 23.9699L99.4155 8.39819H104.752L109.985 18.638L115.219 8.39819H120.555L112.371 23.9357Z" fill="#09090B"/>
<path d="M134.404 19.9956C134.404 13.1691 139.475 7.99991 146.4 7.99991C151.933 7.99991 156.242 11.4132 157.599 16.3511H152.528C151.436 13.9656 149.214 12.5095 146.366 12.5095C142.092 12.5095 139.175 15.6573 139.175 19.9999C139.175 24.3425 142.092 27.4903 146.366 27.4903C149.214 27.4903 151.436 26.0342 152.528 23.6487H157.599C156.242 28.5866 151.933 31.9999 146.4 31.9999C139.475 31.9999 134.404 26.8307 134.404 20.0042V19.9956Z" fill="#09090B"/>
<path d="M189.312 27.0834V31.5888H174.636V8.39819H179.372V27.0877H189.312V27.0834Z" fill="#09090B"/>
<path d="M228.345 19.9956C228.345 26.8222 223.077 31.9913 216.25 31.9913C209.424 31.9913 204.19 26.8222 204.19 19.9956C204.19 13.1691 209.424 7.99991 216.25 7.99991C223.077 7.99991 228.345 13.1691 228.345 19.9956ZM208.961 19.9956C208.961 24.334 212.075 27.486 216.25 27.486C220.426 27.486 223.539 24.3382 223.539 19.9956C223.539 15.653 220.426 12.5053 216.25 12.5053C212.075 12.5053 208.961 15.653 208.961 19.9956Z" fill="#09090B"/>
<path d="M263.599 16.1841C263.599 21.0534 260.319 24.1027 255.351 24.1027H250.349V31.5931H245.612V8.39819H255.355C260.328 8.39819 263.604 11.3147 263.604 16.1841H263.599ZM258.794 16.2483C258.794 14.1926 257.604 12.8993 255.15 12.8993H250.345V19.5931H255.15C257.604 19.5931 258.794 18.2654 258.794 16.2483Z" fill="#09090B"/>
<path d="M297.861 24.7322C297.861 30.1327 292.957 31.9871 289.047 31.9871C282.255 31.9871 279.471 28.1455 278.94 24.1327H283.711C284.34 26.4196 285.732 27.5802 289.013 27.5802C291.698 27.5802 293.09 26.5866 293.09 24.9292C293.09 23.2719 291.467 22.9763 287.39 22.0813C283.248 21.2205 279.535 19.8629 279.535 15.289C279.535 10.4196 283.878 7.99991 288.285 7.99991C294.512 7.99991 297.098 11.3447 297.629 15.1905H292.824C292.328 13.5674 291.167 12.4068 288.319 12.4068C285.471 12.4068 284.31 13.6016 284.31 15.092C284.31 16.4496 285.471 16.7836 288.516 17.4432C294.713 18.7708 297.861 20.1284 297.861 24.7322Z" fill="#09090B"/>
<defs>
<radialGradient id="paint0_radial_17026_206429" cx="0" cy="0" r="1" gradientUnits="userSpaceOnUse" gradientTransform="translate(20.0063 20) rotate(-45) scale(20.5061)">
<stop offset="0.12" stop-color="#6366F1"/>
<stop offset="0.6" stop-color="#4F46E5"/>
<stop offset="1" stop-color="#3730A3"/>
</radialGradient>
<clipPath id="clip0_17026_206429">
<rect width="40" height="40" fill="white" transform="translate(0.00634766)"/>
</clipPath>
</defs>
</svg>
